<svg xmlns="http://www.w3.org/2000/svg" xml:space="preserve" xmlns:xlink="http://www.w3.org/1999/xlink" style="max-width: 100%;height: auto;" width="1075.25" height="1208.65625" viewBox="0 0 1075.25 1208.65625">
<defs><mask id="qrmask"><g fill="#ffffff"><g transform="translate(0,133.40625)">
<g transform="translate(342.125,158.125) scale(3.9483333333333)"><path d="M0.8,0L0.8,0C2.2,0,6,4.6,6,6l0,0H0V0.8C0,0.4,0.4,0,0.8,0z"/></g>
<g transform="translate(388.125,158.125) scale(3.9483333333333)"><path d="M5.4,2.8C4.5,1.1,2.6-0.1,1.2,0c-1.3,0.1-1.6,1.6-0.7,3.2c1,1.7,2.8,2.9,4.2,2.8C6.1,5.9,6.4,4.4,5.4,2.8z"/></g>
<g transform="translate(457.125,158.125) scale(3.9483333333333)"><path d="M0,5.2L0,5.2C0,3.8,4.6,0,6,0l0,0v6H0.8C0.4,6,0,5.6,0,5.2z"/></g>
<g transform="translate(480.125,158.125) scale(3.9483333333333)"><path d="M6,0.8L6,0.8C6,2.2,1.4,6,0,6l0,0V0h5.2C5.6,0,6,0.4,6,0.8z"/></g>
<g transform="translate(549.125,158.125) scale(3.9483333333333)"><path d="M0.8,0L0.8,0C2.2,0,6,4.6,6,6l0,0H0V0.8C0,0.4,0.4,0,0.8,0z"/></g>
<g transform="translate(687.125,158.125) scale(3.9483333333333)"><path d="M0,5.2L0,5.2C0,3.8,4.6,0,6,0l0,0v6H0.8C0.4,6,0,5.6,0,5.2z"/></g>
<g transform="translate(710.125,158.125) scale(3.9483333333333)"><path d="M0,6V0h4c1.1,0,2,0.9,2,2v4H0z"/></g>
<g transform="translate(342.125,181.125) scale(3.9483333333333)"><rect width="6" height="6"/></g>
<g transform="translate(411.125,181.125) scale(3.9483333333333)"><path d="M0.8,0L0.8,0C2.2,0,6,4.6,6,6l0,0H0V0.8C0,0.4,0.4,0,0.8,0z"/></g>
<g transform="translate(526.125,181.125) scale(3.9483333333333)"><path d="M6,6H0V2c0-1.1,0.9-2,2-2h4V6z"/></g>
<g transform="translate(549.125,181.125) scale(3.9483333333333)"><path d="M0,0h6v4c0,1.1-0.9,2-2,2H0V0z"/></g>
<g transform="translate(595.125,181.125) scale(3.9483333333333)"><path d="M5.4,2.8C4.5,1.1,2.6-0.1,1.2,0c-1.3,0.1-1.6,1.6-0.7,3.2c1,1.7,2.8,2.9,4.2,2.8C6.1,5.9,6.4,4.4,5.4,2.8z"/></g>
<g transform="translate(664.125,181.125) scale(3.9483333333333)"><path d="M5.4,2.8C4.5,1.1,2.6-0.1,1.2,0c-1.3,0.1-1.6,1.6-0.7,3.2c1,1.7,2.8,2.9,4.2,2.8C6.1,5.9,6.4,4.4,5.4,2.8z"/></g>
<g transform="translate(710.125,181.125) scale(3.9483333333333)"><rect width="6" height="6"/></g>
<g transform="translate(342.125,204.125) scale(3.9483333333333)"><path d="M6,0v6H2C0.9,6,0,5.1,0,4V0H6z"/></g>
<g transform="translate(365.125,204.125) scale(3.9483333333333)"><rect width="6" height="6"/></g>
<g transform="translate(388.125,204.125) scale(3.9483333333333)"><rect width="6" height="6"/></g>
<g transform="translate(411.125,204.125) scale(3.9483333333333)"><rect width="6" height="6"/></g>
<g transform="translate(434.125,204.125) scale(3.9483333333333)"><path d="M0,6V0h4c1.1,0,2,0.9,2,2v4H0z"/></g>
<g transform="translate(480.125,204.125) scale(3.9483333333333)"><path d="M6,6H0V2c0-1.1,0.9-2,2-2h4V6z"/></g>
<g transform="translate(503.125,204.125) scale(3.9483333333333)"><rect width="6" height="6"/></g>
<g transform="translate(526.125,204.125) scale(3.9483333333333)"><rect width="6" height="6"/></g>
<g transform="translate(572.125,204.125) scale(3.9483333333333)"><path d="M5.4,2.8C4.5,1.1,2.6-0.1,1.2,0c-1.3,0.1-1.6,1.6-0.7,3.2c1,1.7,2.8,2.9,4.2,2.8C6.1,5.9,6.4,4.4,5.4,2.8z"/></g>
<g transform="translate(641.125,204.125) scale(3.9483333333333)"><path d="M5.4,2.8C4.5,1.1,2.6-0.1,1.2,0c-1.3,0.1-1.6,1.6-0.7,3.2c1,1.7,2.8,2.9,4.2,2.8C6.1,5.9,6.4,4.4,5.4,2.8z"/></g>
<g transform="translate(687.125,204.125) scale(3.9483333333333)"><path d="M6,6H0V2c0-1.1,0.9-2,2-2h4V6z"/></g>
<g transform="translate(710.125,204.125) scale(3.9483333333333)"><rect width="6" height="6"/></g>
<g transform="translate(365.125,227.125) scale(3.9483333333333)"><path d="M5.2,6L5.2,6C3.8,6,0,1.4,0,0l0,0h6v5.2C6,5.6,5.6,6,5.2,6z"/></g>
<g transform="translate(434.125,227.125) scale(3.9483333333333)"><rect width="6" height="6"/></g>
<g transform="translate(480.125,227.125) scale(3.9483333333333)"><rect width="6" height="6"/></g>
<g transform="translate(526.125,227.125) scale(3.9483333333333)"><path d="M6,0v6H2C0.9,6,0,5.1,0,4V0H6z"/></g>
<g transform="translate(549.125,227.125) scale(3.9483333333333)"><path d="M0,6V0h4c1.1,0,2,0.9,2,2v4H0z"/></g>
<g transform="translate(618.125,227.125) scale(3.9483333333333)"><path d="M0.8,0L0.8,0C2.2,0,6,4.6,6,6l0,0H0V0.8C0,0.4,0.4,0,0.8,0z"/></g>
<g transform="translate(664.125,227.125) scale(3.9483333333333)"><path d="M0,5.2L0,5.2C0,3.8,4.6,0,6,0l0,0v6H0.8C0.4,6,0,5.6,0,5.2z"/></g>
<g transform="translate(687.125,227.125) scale(3.9483333333333)"><rect width="6" height="6"/></g>
<g transform="translate(710.125,227.125) scale(3.9483333333333)"><path d="M0,0h6v4c0,1.1-0.9,2-2,2H0V0z"/></g>
<g transform="translate(388.125,250.125) scale(3.9483333333333)"><path d="M5.4,2.8C4.5,1.1,2.6-0.1,1.2,0c-1.3,0.1-1.6,1.6-0.7,3.2c1,1.7,2.8,2.9,4.2,2.8C6.1,5.9,6.4,4.4,5.4,2.8z"/></g>
<g transform="translate(434.125,250.125) scale(3.9483333333333)"><path d="M6,0v6H2C0.9,6,0,5.1,0,4V0H6z"/></g>
<g transform="translate(457.125,250.125) scale(3.9483333333333)"><rect width="6" height="6"/></g>
<g transform="translate(480.125,250.125) scale(3.9483333333333)"><path d="M0,0h6v4c0,1.1-0.9,2-2,2H0V0z"/></g>
<g transform="translate(549.125,250.125) scale(3.9483333333333)"><path d="M6,0v6H2C0.9,6,0,5.1,0,4V0H6z"/></g>
<g transform="translate(572.125,250.125) scale(3.9483333333333)"><rect width="6" height="6"/></g>
<g transform="translate(595.125,250.125) scale(3.9483333333333)"><rect width="6" height="6"/></g>
<g transform="translate(618.125,250.125) scale(3.9483333333333)"><rect width="6" height="6"/></g>
<g transform="translate(342.125,273.125) scale(3.9483333333333)"><path d="M6,6H0V2c0-1.1,0.9-2,2-2h4V6z"/></g>
<g transform="translate(365.125,273.125) scale(3.9483333333333)"><path d="M6,0.8L6,0.8C6,2.2,1.4,6,0,6l0,0V0h5.2C5.6,0,6,0.4,6,0.8z"/></g>
<g transform="translate(526.125,273.125) scale(3.9483333333333)"><path d="M0.8,0L0.8,0C2.2,0,6,4.6,6,6l0,0H0V0.8C0,0.4,0.4,0,0.8,0z"/></g>
<g transform="translate(572.125,273.125) scale(3.9483333333333)"><rect width="6" height="6"/></g>
<g transform="translate(618.125,273.125) scale(3.9483333333333)"><rect width="6" height="6"/></g>
<g transform="translate(664.125,273.125) scale(3.9483333333333)"><path d="M6,6H0V2c0-1.1,0.9-2,2-2h4V6z"/></g>
<g transform="translate(687.125,273.125) scale(3.9483333333333)"><rect width="6" height="6"/></g>
<g transform="translate(710.125,273.125) scale(3.9483333333333)"><path d="M0,6V0h4c1.1,0,2,0.9,2,2v4H0z"/></g>
<g transform="translate(342.125,296.125) scale(3.9483333333333)"><rect width="6" height="6"/></g>
<g transform="translate(388.125,296.125) scale(3.9483333333333)"><path d="M5.4,2.8C4.5,1.1,2.6-0.1,1.2,0c-1.3,0.1-1.6,1.6-0.7,3.2c1,1.7,2.8,2.9,4.2,2.8C6.1,5.9,6.4,4.4,5.4,2.8z"/></g>
<g transform="translate(434.125,296.125) scale(3.9483333333333)"><path d="M5.4,2.8C4.5,1.1,2.6-0.1,1.2,0c-1.3,0.1-1.6,1.6-0.7,3.2c1,1.7,2.8,2.9,4.2,2.8C6.1,5.9,6.4,4.4,5.4,2.8z"/></g>
<g transform="translate(480.125,296.125) scale(3.9483333333333)"><path d="M5.4,2.8C4.5,1.1,2.6-0.1,1.2,0c-1.3,0.1-1.6,1.6-0.7,3.2c1,1.7,2.8,2.9,4.2,2.8C6.1,5.9,6.4,4.4,5.4,2.8z"/></g>
<g transform="translate(526.125,296.125) scale(3.9483333333333)"><path d="M5.2,6L5.2,6C3.8,6,0,1.4,0,0l0,0h6v5.2C6,5.6,5.6,6,5.2,6z"/></g>
<g transform="translate(572.125,296.125) scale(3.9483333333333)"><rect width="6" height="6"/></g>
<g transform="translate(618.125,296.125) scale(3.9483333333333)"><path d="M5.2,6L5.2,6C3.8,6,0,1.4,0,0l0,0h6v5.2C6,5.6,5.6,6,5.2,6z"/></g>
<g transform="translate(664.125,296.125) scale(3.9483333333333)"><rect width="6" height="6"/></g>
<g transform="translate(710.125,296.125) scale(3.9483333333333)"><path d="M5.2,6L5.2,6C3.8,6,0,1.4,0,0l0,0h6v5.2C6,5.6,5.6,6,5.2,6z"/></g>
<g transform="translate(342.125,319.125) scale(3.9483333333333)"><rect width="6" height="6"/></g>
<g transform="translate(411.125,319.125) scale(3.9483333333333)"><path d="M0.8,0L0.8,0C2.2,0,6,4.6,6,6l0,0H0V0.8C0,0.4,0.4,0,0.8,0z"/></g>
<g transform="translate(549.125,319.125) scale(3.9483333333333)"><path d="M0,5.2L0,5.2C0,3.8,4.6,0,6,0l0,0v6H0.8C0.4,6,0,5.6,0,5.2z"/></g>
<g transform="translate(572.125,319.125) scale(3.9483333333333)"><path d="M0,0h6v4c0,1.1-0.9,2-2,2H0V0z"/></g>
<g transform="translate(641.125,319.125) scale(3.9483333333333)"><path d="M0,5.2L0,5.2C0,3.8,4.6,0,6,0l0,0v6H0.8C0.4,6,0,5.6,0,5.2z"/></g>
<g transform="translate(664.125,319.125) scale(3.9483333333333)"><rect width="6" height="6"/></g>
<g transform="translate(687.125,319.125) scale(3.9483333333333)"><path d="M0,6V0h4c1.1,0,2,0.9,2,2v4H0z"/></g>
<g transform="translate(204.125,342.125) scale(3.9483333333333)"><path d="M6,6H0V2c0-1.1,0.9-2,2-2h4V6z"/></g>
<g transform="translate(227.125,342.125) scale(3.9483333333333)"><rect width="6" height="6"/></g>
<g transform="translate(250.125,342.125) scale(3.9483333333333)"><path d="M0,6V0h4c1.1,0,2,0.9,2,2v4H0z"/></g>
<g transform="translate(296.125,342.125) scale(3.9483333333333)"><path d="M5.4,2.8C4.5,1.1,2.6-0.1,1.2,0c-1.3,0.1-1.6,1.6-0.7,3.2c1,1.7,2.8,2.9,4.2,2.8C6.1,5.9,6.4,4.4,5.4,2.8z"/></g>
<g transform="translate(342.125,342.125) scale(3.9483333333333)"><path d="M5.2,6L5.2,6C3.8,6,0,1.4,0,0l0,0h6v5.2C6,5.6,5.6,6,5.2,6z"/></g>
<g transform="translate(411.125,342.125) scale(3.9483333333333)"><path d="M6,0v6H2C0.9,6,0,5.1,0,4V0H6z"/></g>
<g transform="translate(434.125,342.125) scale(3.9483333333333)"><rect width="6" height="6"/></g>
<g transform="translate(457.125,342.125) scale(3.9483333333333)"><path d="M6,0.8L6,0.8C6,2.2,1.4,6,0,6l0,0V0h5.2C5.6,0,6,0.4,6,0.8z"/></g>
<g transform="translate(595.125,342.125) scale(3.9483333333333)"><path d="M5.4,2.8C4.5,1.1,2.6-0.1,1.2,0c-1.3,0.1-1.6,1.6-0.7,3.2c1,1.7,2.8,2.9,4.2,2.8C6.1,5.9,6.4,4.4,5.4,2.8z"/></g>
<g transform="translate(687.125,342.125) scale(3.9483333333333)"><rect width="6" height="6"/></g>
<g transform="translate(710.125,342.125) scale(3.9483333333333)"><rect width="6" height="6"/></g>
<g transform="translate(733.125,342.125) scale(3.9483333333333)"><rect width="6" height="6"/></g>
<g transform="translate(756.125,342.125) scale(3.9483333333333)"><rect width="6" height="6"/></g>
<g transform="translate(779.125,342.125) scale(3.9483333333333)"><path d="M6,0.8L6,0.8C6,2.2,1.4,6,0,6l0,0V0h5.2C5.6,0,6,0.4,6,0.8z"/></g>
<g transform="translate(848.125,342.125) scale(3.9483333333333)"><path d="M0,5.2L0,5.2C0,3.8,4.6,0,6,0l0,0v6H0.8C0.4,6,0,5.6,0,5.2z"/></g>
<g transform="translate(871.125,342.125) scale(3.9483333333333)"><rect width="6" height="6"/></g>
<g transform="translate(894.125,342.125) scale(3.9483333333333)"><path d="M0,6V0h4c1.1,0,2,0.9,2,2v4H0z"/></g>
<g transform="translate(181.125,365.125) scale(3.9483333333333)"><path d="M6,6H0V2c0-1.1,0.9-2,2-2h4V6z"/></g>
<g transform="translate(204.125,365.125) scale(3.9483333333333)"><rect width="6" height="6"/></g>
<g transform="translate(250.125,365.125) scale(3.9483333333333)"><path d="M6,0v6H2C0.9,6,0,5.1,0,4V0H6z"/></g>
<g transform="translate(273.125,365.125) scale(3.9483333333333)"><path d="M0,6V0h4c1.1,0,2,0.9,2,2v4H0z"/></g>
<g transform="translate(365.125,365.125) scale(3.9483333333333)"><path d="M6,6H0V2c0-1.1,0.9-2,2-2h4V6z"/></g>
<g transform="translate(388.125,365.125) scale(3.9483333333333)"><path d="M6,0.8L6,0.8C6,2.2,1.4,6,0,6l0,0V0h5.2C5.6,0,6,0.4,6,0.8z"/></g>
<g transform="translate(572.125,365.125) scale(3.9483333333333)"><path d="M5.4,2.8C4.5,1.1,2.6-0.1,1.2,0c-1.3,0.1-1.6,1.6-0.7,3.2c1,1.7,2.8,2.9,4.2,2.8C6.1,5.9,6.4,4.4,5.4,2.8z"/></g>
<g transform="translate(618.125,365.125) scale(3.9483333333333)"><path d="M6,6H0V2c0-1.1,0.9-2,2-2h4V6z"/></g>
<g transform="translate(641.125,365.125) scale(3.9483333333333)"><rect width="6" height="6"/></g>
<g transform="translate(664.125,365.125) scale(3.9483333333333)"><rect width="6" height="6"/></g>
<g transform="translate(687.125,365.125) scale(3.9483333333333)"><path d="M0,0h6v4c0,1.1-0.9,2-2,2H0V0z"/></g>
<g transform="translate(733.125,365.125) scale(3.9483333333333)"><path d="M6,0v6H2C0.9,6,0,5.1,0,4V0H6z"/></g>
<g transform="translate(756.125,365.125) scale(3.9483333333333)"><rect width="6" height="6"/></g>
<g transform="translate(825.125,365.125) scale(3.9483333333333)"><path d="M0.8,0L0.8,0C2.2,0,6,4.6,6,6l0,0H0V0.8C0,0.4,0.4,0,0.8,0z"/></g>
<g transform="translate(894.125,365.125) scale(3.9483333333333)"><path d="M5.2,6L5.2,6C3.8,6,0,1.4,0,0l0,0h6v5.2C6,5.6,5.6,6,5.2,6z"/></g>
<g transform="translate(181.125,388.125) scale(3.9483333333333)"><rect width="6" height="6"/></g>
<g transform="translate(204.125,388.125) scale(3.9483333333333)"><rect width="6" height="6"/></g>
<g transform="translate(227.125,388.125) scale(3.9483333333333)"><path d="M6,0.8L6,0.8C6,2.2,1.4,6,0,6l0,0V0h5.2C5.6,0,6,0.4,6,0.8z"/></g>
<g transform="translate(273.125,388.125) scale(3.9483333333333)"><rect width="6" height="6"/></g>
<g transform="translate(296.125,388.125) scale(3.9483333333333)"><path d="M6,0.8L6,0.8C6,2.2,1.4,6,0,6l0,0V0h5.2C5.6,0,6,0.4,6,0.8z"/></g>
<g transform="translate(365.125,388.125) scale(3.9483333333333)"><rect width="6" height="6"/></g>
<g transform="translate(434.125,388.125) scale(3.9483333333333)"><path d="M5.4,2.8C4.5,1.1,2.6-0.1,1.2,0c-1.3,0.1-1.6,1.6-0.7,3.2c1,1.7,2.8,2.9,4.2,2.8C6.1,5.9,6.4,4.4,5.4,2.8z"/></g>
<g transform="translate(480.125,388.125) scale(3.9483333333333)"><path d="M5.4,2.8C4.5,1.1,2.6-0.1,1.2,0c-1.3,0.1-1.6,1.6-0.7,3.2c1,1.7,2.8,2.9,4.2,2.8C6.1,5.9,6.4,4.4,5.4,2.8z"/></g>
<g transform="translate(549.125,388.125) scale(3.9483333333333)"><path d="M0.8,0L0.8,0C2.2,0,6,4.6,6,6l0,0H0V0.8C0,0.4,0.4,0,0.8,0z"/></g>
<g transform="translate(595.125,388.125) scale(3.9483333333333)"><path d="M0,5.2L0,5.2C0,3.8,4.6,0,6,0l0,0v6H0.8C0.4,6,0,5.6,0,5.2z"/></g>
<g transform="translate(618.125,388.125) scale(3.9483333333333)"><rect width="6" height="6"/></g>
<g transform="translate(641.125,388.125) scale(3.9483333333333)"><rect width="6" height="6"/></g>
<g transform="translate(710.125,388.125) scale(3.9483333333333)"><path d="M0.8,0L0.8,0C2.2,0,6,4.6,6,6l0,0H0V0.8C0,0.4,0.4,0,0.8,0z"/></g>
<g transform="translate(756.125,388.125) scale(3.9483333333333)"><path d="M6,0v6H2C0.9,6,0,5.1,0,4V0H6z"/></g>
<g transform="translate(779.125,388.125) scale(3.9483333333333)"><path d="M6,0.8L6,0.8C6,2.2,1.4,6,0,6l0,0V0h5.2C5.6,0,6,0.4,6,0.8z"/></g>
<g transform="translate(825.125,388.125) scale(3.9483333333333)"><path d="M6,0v6H2C0.9,6,0,5.1,0,4V0H6z"/></g>
<g transform="translate(848.125,388.125) scale(3.9483333333333)"><rect width="6" height="6"/></g>
<g transform="translate(871.125,388.125) scale(3.9483333333333)"><path d="M0,6V0h4c1.1,0,2,0.9,2,2v4H0z"/></g>
<g transform="translate(158.125,411.125) scale(3.9483333333333)"><path d="M6,6H0V2c0-1.1,0.9-2,2-2h4V6z"/></g>
<g transform="translate(181.125,411.125) scale(3.9483333333333)"><rect width="6" height="6"/></g>
<g transform="translate(204.125,411.125) scale(3.9483333333333)"><rect width="6" height="6"/></g>
<g transform="translate(250.125,411.125) scale(3.9483333333333)"><path d="M0,5.2L0,5.2C0,3.8,4.6,0,6,0l0,0v6H0.8C0.4,6,0,5.6,0,5.2z"/></g>
<g transform="translate(273.125,411.125) scale(3.9483333333333)"><rect width="6" height="6"/></g>
<g transform="translate(365.125,411.125) scale(3.9483333333333)"><path d="M5.2,6L5.2,6C3.8,6,0,1.4,0,0l0,0h6v5.2C6,5.6,5.6,6,5.2,6z"/></g>
<g transform="translate(457.125,411.125) scale(3.9483333333333)"><path d="M5.4,2.8C4.5,1.1,2.6-0.1,1.2,0c-1.3,0.1-1.6,1.6-0.7,3.2c1,1.7,2.8,2.9,4.2,2.8C6.1,5.9,6.4,4.4,5.4,2.8z"/></g>
<g transform="translate(526.125,411.125) scale(3.9483333333333)"><path d="M6,6H0V2c0-1.1,0.9-2,2-2h4V6z"/></g>
<g transform="translate(549.125,411.125) scale(3.9483333333333)"><rect width="6" height="6"/></g>
<g transform="translate(572.125,411.125) scale(3.9483333333333)"><path d="M6,0.8L6,0.8C6,2.2,1.4,6,0,6l0,0V0h5.2C5.6,0,6,0.4,6,0.8z"/></g>
<g transform="translate(641.125,411.125) scale(3.9483333333333)"><rect width="6" height="6"/></g>
<g transform="translate(664.125,411.125) scale(3.9483333333333)"><path d="M6,0.8L6,0.8C6,2.2,1.4,6,0,6l0,0V0h5.2C5.6,0,6,0.4,6,0.8z"/></g>
<g transform="translate(710.125,411.125) scale(3.9483333333333)"><rect width="6" height="6"/></g>
<g transform="translate(848.125,411.125) scale(3.9483333333333)"><path d="M6,0v6H2C0.9,6,0,5.1,0,4V0H6z"/></g>
<g transform="translate(871.125,411.125) scale(3.9483333333333)"><rect width="6" height="6"/></g>
<g transform="translate(894.125,411.125) scale(3.9483333333333)"><path d="M6,0.8L6,0.8C6,2.2,1.4,6,0,6l0,0V0h5.2C5.6,0,6,0.4,6,0.8z"/></g>
<g transform="translate(158.125,434.125) scale(3.9483333333333)"><path d="M6,0v6H2C0.9,6,0,5.1,0,4V0H6z"/></g>
<g transform="translate(181.125,434.125) scale(3.9483333333333)"><rect width="6" height="6"/></g>
<g transform="translate(204.125,434.125) scale(3.9483333333333)"><rect width="6" height="6"/></g>
<g transform="translate(227.125,434.125) scale(3.9483333333333)"><path d="M0,6V0h4c1.1,0,2,0.9,2,2v4H0z"/></g>
<g transform="translate(273.125,434.125) scale(3.9483333333333)"><path d="M6,0v6H2C0.9,6,0,5.1,0,4V0H6z"/></g>
<g transform="translate(296.125,434.125) scale(3.9483333333333)"><rect width="6" height="6"/></g>
<g transform="translate(319.125,434.125) scale(3.9483333333333)"><rect width="6" height="6"/></g>
<g transform="translate(342.125,434.125) scale(3.9483333333333)"><path d="M6,0.8L6,0.8C6,2.2,1.4,6,0,6l0,0V0h5.2C5.6,0,6,0.4,6,0.8z"/></g>
<g transform="translate(411.125,434.125) scale(3.9483333333333)"><path d="M0.8,0L0.8,0C2.2,0,6,4.6,6,6l0,0H0V0.8C0,0.4,0.4,0,0.8,0z"/></g>
<g transform="translate(480.125,434.125) scale(3.9483333333333)"><path d="M0,5.2L0,5.2C0,3.8,4.6,0,6,0l0,0v6H0.8C0.4,6,0,5.6,0,5.2z"/></g>
<g transform="translate(503.125,434.125) scale(3.9483333333333)"><rect width="6" height="6"/></g>
<g transform="translate(526.125,434.125) scale(3.9483333333333)"><rect width="6" height="6"/></g>
<g transform="translate(549.125,434.125) scale(3.9483333333333)"><path d="M0,0h6v4c0,1.1-0.9,2-2,2H0V0z"/></g>
<g transform="translate(595.125,434.125) scale(3.9483333333333)"><path d="M0,5.2L0,5.2C0,3.8,4.6,0,6,0l0,0v6H0.8C0.4,6,0,5.6,0,5.2z"/></g>
<g transform="translate(618.125,434.125) scale(3.9483333333333)"><rect width="6" height="6"/></g>
<g transform="translate(641.125,434.125) scale(3.9483333333333)"><path d="M0,0h6v4c0,1.1-0.9,2-2,2H0V0z"/></g>
<g transform="translate(687.125,434.125) scale(3.9483333333333)"><path d="M6,6H0V2c0-1.1,0.9-2,2-2h4V6z"/></g>
<g transform="translate(710.125,434.125) scale(3.9483333333333)"><rect width="6" height="6"/></g>
<g transform="translate(733.125,434.125) scale(3.9483333333333)"><path d="M0,6V0h4c1.1,0,2,0.9,2,2v4H0z"/></g>
<g transform="translate(871.125,434.125) scale(3.9483333333333)"><path d="M5.2,6L5.2,6C3.8,6,0,1.4,0,0l0,0h6v5.2C6,5.6,5.6,6,5.2,6z"/></g>
<g transform="translate(204.125,457.125) scale(3.9483333333333)"><path d="M6,0v6H2C0.9,6,0,5.1,0,4V0H6z"/></g>
<g transform="translate(227.125,457.125) scale(3.9483333333333)"><rect width="6" height="6"/></g>
<g transform="translate(250.125,457.125) scale(3.9483333333333)"><path d="M0,6V0h4c1.1,0,2,0.9,2,2v4H0z"/></g>
<g transform="translate(388.125,457.125) scale(3.9483333333333)"><path d="M0,5.2L0,5.2C0,3.8,4.6,0,6,0l0,0v6H0.8C0.4,6,0,5.6,0,5.2z"/></g>
<g transform="translate(411.125,457.125) scale(3.9483333333333)"><rect width="6" height="6"/></g>
<g transform="translate(526.125,457.125) scale(3.9483333333333)"><rect width="6" height="6"/></g>
<g transform="translate(618.125,457.125) scale(3.9483333333333)"><path d="M5.2,6L5.2,6C3.8,6,0,1.4,0,0l0,0h6v5.2C6,5.6,5.6,6,5.2,6z"/></g>
<g transform="translate(664.125,457.125) scale(3.9483333333333)"><path d="M6,6H0V2c0-1.1,0.9-2,2-2h4V6z"/></g>
<g transform="translate(687.125,457.125) scale(3.9483333333333)"><rect width="6" height="6"/></g>
<g transform="translate(710.125,457.125) scale(3.9483333333333)"><rect width="6" height="6"/></g>
<g transform="translate(733.125,457.125) scale(3.9483333333333)"><rect width="6" height="6"/></g>
<g transform="translate(756.125,457.125) scale(3.9483333333333)"><rect width="6" height="6"/></g>
<g transform="translate(779.125,457.125) scale(3.9483333333333)"><path d="M6,0.8L6,0.8C6,2.2,1.4,6,0,6l0,0V0h5.2C5.6,0,6,0.4,6,0.8z"/></g>
<g transform="translate(894.125,457.125) scale(3.9483333333333)"><path d="M5.4,2.8C4.5,1.1,2.6-0.1,1.2,0c-1.3,0.1-1.6,1.6-0.7,3.2c1,1.7,2.8,2.9,4.2,2.8C6.1,5.9,6.4,4.4,5.4,2.8z"/></g>
<g transform="translate(158.125,480.125) scale(3.9483333333333)"><path d="M6,6H0V2c0-1.1,0.9-2,2-2h4V6z"/></g>
<g transform="translate(181.125,480.125) scale(3.9483333333333)"><path d="M0,6V0h4c1.1,0,2,0.9,2,2v4H0z"/></g>
<g transform="translate(227.125,480.125) scale(3.9483333333333)"><rect width="6" height="6"/></g>
<g transform="translate(250.125,480.125) scale(3.9483333333333)"><rect width="6" height="6"/></g>
<g transform="translate(296.125,480.125) scale(3.9483333333333)"><path d="M5.4,2.8C4.5,1.1,2.6-0.1,1.2,0c-1.3,0.1-1.6,1.6-0.7,3.2c1,1.7,2.8,2.9,4.2,2.8C6.1,5.9,6.4,4.4,5.4,2.8z"/></g>
<g transform="translate(342.125,480.125) scale(3.9483333333333)"><path d="M5.4,2.8C4.5,1.1,2.6-0.1,1.2,0c-1.3,0.1-1.6,1.6-0.7,3.2c1,1.7,2.8,2.9,4.2,2.8C6.1,5.9,6.4,4.4,5.4,2.8z"/></g>
<g transform="translate(411.125,480.125) scale(3.9483333333333)"><rect width="6" height="6"/></g>
<g transform="translate(480.125,480.125) scale(3.9483333333333)"><path d="M0.8,0L0.8,0C2.2,0,6,4.6,6,6l0,0H0V0.8C0,0.4,0.4,0,0.8,0z"/></g>
<g transform="translate(526.125,480.125) scale(3.9483333333333)"><path d="M5.2,6L5.2,6C3.8,6,0,1.4,0,0l0,0h6v5.2C6,5.6,5.6,6,5.2,6z"/></g>
<g transform="translate(572.125,480.125) scale(3.9483333333333)"><path d="M6,6H0V2c0-1.1,0.9-2,2-2h4V6z"/></g>
<g transform="translate(595.125,480.125) scale(3.9483333333333)"><path d="M0,6V0h4c1.1,0,2,0.9,2,2v4H0z"/></g>
<g transform="translate(664.125,480.125) scale(3.9483333333333)"><rect width="6" height="6"/></g>
<g transform="translate(710.125,480.125) scale(3.9483333333333)"><rect width="6" height="6"/></g>
<g transform="translate(848.125,480.125) scale(3.9483333333333)"><path d="M6,6H0V2c0-1.1,0.9-2,2-2h4V6z"/></g>
<g transform="translate(871.125,480.125) scale(3.9483333333333)"><path d="M0,6V0h4c1.1,0,2,0.9,2,2v4H0z"/></g>
<g transform="translate(158.125,503.125) scale(3.9483333333333)"><rect width="6" height="6"/></g>
<g transform="translate(181.125,503.125) scale(3.9483333333333)"><path d="M0,0h6v4c0,1.1-0.9,2-2,2H0V0z"/></g>
<g transform="translate(227.125,503.125) scale(3.9483333333333)"><path d="M6,0v6H2C0.9,6,0,5.1,0,4V0H6z"/></g>
<g transform="translate(250.125,503.125) scale(3.9483333333333)"><path d="M0,0h6v4c0,1.1-0.9,2-2,2H0V0z"/></g>
<g transform="translate(319.125,503.125) scale(3.9483333333333)"><path d="M0.8,0L0.8,0C2.2,0,6,4.6,6,6l0,0H0V0.8C0,0.4,0.4,0,0.8,0z"/></g>
<g transform="translate(388.125,503.125) scale(3.9483333333333)"><path d="M6,6H0V2c0-1.1,0.9-2,2-2h4V6z"/></g>
<g transform="translate(411.125,503.125) scale(3.9483333333333)"><path d="M0,0h6v4c0,1.1-0.9,2-2,2H0V0z"/></g>
<g transform="translate(480.125,503.125) scale(3.9483333333333)"><rect width="6" height="6"/></g>
<g transform="translate(503.125,503.125) scale(3.9483333333333)"><path d="M0,6V0h4c1.1,0,2,0.9,2,2v4H0z"/></g>
<g transform="translate(549.125,503.125) scale(3.9483333333333)"><path d="M6,6H0V2c0-1.1,0.9-2,2-2h4V6z"/></g>
<g transform="translate(572.125,503.125) scale(3.9483333333333)"><rect width="6" height="6"/></g>
<g transform="translate(595.125,503.125) scale(3.9483333333333)"><rect width="6" height="6"/></g>
<g transform="translate(618.125,503.125) scale(3.9483333333333)"><rect width="6" height="6"/></g>
<g transform="translate(641.125,503.125) scale(3.9483333333333)"><rect width="6" height="6"/></g>
<g transform="translate(664.125,503.125) scale(3.9483333333333)"><rect width="6" height="6"/></g>
<g transform="translate(687.125,503.125) scale(3.9483333333333)"><rect width="6" height="6"/></g>
<g transform="translate(710.125,503.125) scale(3.9483333333333)"><rect width="6" height="6"/></g>
<g transform="translate(733.125,503.125) scale(3.9483333333333)"><path d="M0,6V0h4c1.1,0,2,0.9,2,2v4H0z"/></g>
<g transform="translate(779.125,503.125) scale(3.9483333333333)"><path d="M0.8,0L0.8,0C2.2,0,6,4.6,6,6l0,0H0V0.8C0,0.4,0.4,0,0.8,0z"/></g>
<g transform="translate(848.125,503.125) scale(3.9483333333333)"><rect width="6" height="6"/></g>
<g transform="translate(871.125,503.125) scale(3.9483333333333)"><rect width="6" height="6"/></g>
<g transform="translate(894.125,503.125) scale(3.9483333333333)"><path d="M0,6V0h4c1.1,0,2,0.9,2,2v4H0z"/></g>
<g transform="translate(158.125,526.125) scale(3.9483333333333)"><path d="M5.2,6L5.2,6C3.8,6,0,1.4,0,0l0,0h6v5.2C6,5.6,5.6,6,5.2,6z"/></g>
<g transform="translate(204.125,526.125) scale(3.9483333333333)"><path d="M5.4,2.8C4.5,1.1,2.6-0.1,1.2,0c-1.3,0.1-1.6,1.6-0.7,3.2c1,1.7,2.8,2.9,4.2,2.8C6.1,5.9,6.4,4.4,5.4,2.8z"/></g>
<g transform="translate(296.125,526.125) scale(3.9483333333333)"><path d="M0,5.2L0,5.2C0,3.8,4.6,0,6,0l0,0v6H0.8C0.4,6,0,5.6,0,5.2z"/></g>
<g transform="translate(319.125,526.125) scale(3.9483333333333)"><rect width="6" height="6"/></g>
<g transform="translate(365.125,526.125) scale(3.9483333333333)"><path d="M6,6H0V2c0-1.1,0.9-2,2-2h4V6z"/></g>
<g transform="translate(388.125,526.125) scale(3.9483333333333)"><path d="M0,0h6v4c0,1.1-0.9,2-2,2H0V0z"/></g>
<g transform="translate(434.125,526.125) scale(3.9483333333333)"><path d="M0.8,0L0.8,0C2.2,0,6,4.6,6,6l0,0H0V0.8C0,0.4,0.4,0,0.8,0z"/></g>
<g transform="translate(480.125,526.125) scale(3.9483333333333)"><rect width="6" height="6"/></g>
<g transform="translate(503.125,526.125) scale(3.9483333333333)"><rect width="6" height="6"/></g>
<g transform="translate(549.125,526.125) scale(3.9483333333333)"><rect width="6" height="6"/></g>
<g transform="translate(595.125,526.125) scale(3.9483333333333)"><path d="M6,0v6H2C0.9,6,0,5.1,0,4V0H6z"/></g>
<g transform="translate(618.125,526.125) scale(3.9483333333333)"><rect width="6" height="6"/></g>
<g transform="translate(733.125,526.125) scale(3.9483333333333)"><path d="M5.2,6L5.2,6C3.8,6,0,1.4,0,0l0,0h6v5.2C6,5.6,5.6,6,5.2,6z"/></g>
<g transform="translate(779.125,526.125) scale(3.9483333333333)"><path d="M6,0v6H2C0.9,6,0,5.1,0,4V0H6z"/></g>
<g transform="translate(802.125,526.125) scale(3.9483333333333)"><path d="M6,0.8L6,0.8C6,2.2,1.4,6,0,6l0,0V0h5.2C5.6,0,6,0.4,6,0.8z"/></g>
<g transform="translate(848.125,526.125) scale(3.9483333333333)"><path d="M5.2,6L5.2,6C3.8,6,0,1.4,0,0l0,0h6v5.2C6,5.6,5.6,6,5.2,6z"/></g>
<g transform="translate(894.125,526.125) scale(3.9483333333333)"><rect width="6" height="6"/></g>
<g transform="translate(227.125,549.125) scale(3.9483333333333)"><path d="M5.4,2.8C4.5,1.1,2.6-0.1,1.2,0c-1.3,0.1-1.6,1.6-0.7,3.2c1,1.7,2.8,2.9,4.2,2.8C6.1,5.9,6.4,4.4,5.4,2.8z"/></g>
<g transform="translate(273.125,549.125) scale(3.9483333333333)"><path d="M0.8,0L0.8,0C2.2,0,6,4.6,6,6l0,0H0V0.8C0,0.4,0.4,0,0.8,0z"/></g>
<g transform="translate(319.125,549.125) scale(3.9483333333333)"><rect width="6" height="6"/></g>
<g transform="translate(342.125,549.125) scale(3.9483333333333)"><rect width="6" height="6"/></g>
<g transform="translate(365.125,549.125) scale(3.9483333333333)"><rect width="6" height="6"/></g>
<g transform="translate(411.125,549.125) scale(3.9483333333333)"><path d="M6,6H0V2c0-1.1,0.9-2,2-2h4V6z"/></g>
<g transform="translate(434.125,549.125) scale(3.9483333333333)"><rect width="6" height="6"/></g>
<g transform="translate(457.125,549.125) scale(3.9483333333333)"><rect width="6" height="6"/></g>
<g transform="translate(480.125,549.125) scale(3.9483333333333)"><rect width="6" height="6"/></g>
<g transform="translate(503.125,549.125) scale(3.9483333333333)"><rect width="6" height="6"/></g>
<g transform="translate(549.125,549.125) scale(3.9483333333333)"><path d="M6,0v6H2C0.9,6,0,5.1,0,4V0H6z"/></g>
<g transform="translate(572.125,549.125) scale(3.9483333333333)"><path d="M0,6V0h4c1.1,0,2,0.9,2,2v4H0z"/></g>
<g transform="translate(618.125,549.125) scale(3.9483333333333)"><rect width="6" height="6"/></g>
<g transform="translate(641.125,549.125) scale(3.9483333333333)"><path d="M6,0.8L6,0.8C6,2.2,1.4,6,0,6l0,0V0h5.2C5.6,0,6,0.4,6,0.8z"/></g>
<g transform="translate(687.125,549.125) scale(3.9483333333333)"><path d="M0,5.2L0,5.2C0,3.8,4.6,0,6,0l0,0v6H0.8C0.4,6,0,5.6,0,5.2z"/></g>
<g transform="translate(710.125,549.125) scale(3.9483333333333)"><path d="M6,0.8L6,0.8C6,2.2,1.4,6,0,6l0,0V0h5.2C5.6,0,6,0.4,6,0.8z"/></g>
<g transform="translate(756.125,549.125) scale(3.9483333333333)"><path d="M0.8,0L0.8,0C2.2,0,6,4.6,6,6l0,0H0V0.8C0,0.4,0.4,0,0.8,0z"/></g>
<g transform="translate(871.125,549.125) scale(3.9483333333333)"><path d="M0,5.2L0,5.2C0,3.8,4.6,0,6,0l0,0v6H0.8C0.4,6,0,5.6,0,5.2z"/></g>
<g transform="translate(894.125,549.125) scale(3.9483333333333)"><path d="M0,0h6v4c0,1.1-0.9,2-2,2H0V0z"/></g>
<g transform="translate(273.125,572.125) scale(3.9483333333333)"><rect width="6" height="6"/></g>
<g transform="translate(296.125,572.125) scale(3.9483333333333)"><rect width="6" height="6"/></g>
<g transform="translate(319.125,572.125) scale(3.9483333333333)"><rect width="6" height="6"/></g>
<g transform="translate(342.125,572.125) scale(3.9483333333333)"><rect width="6" height="6"/></g>
<g transform="translate(365.125,572.125) scale(3.9483333333333)"><rect width="6" height="6"/></g>
<g transform="translate(388.125,572.125) scale(3.9483333333333)"><rect width="6" height="6"/></g>
<g transform="translate(411.125,572.125) scale(3.9483333333333)"><path d="M0,0h6v4c0,1.1-0.9,2-2,2H0V0z"/></g>
<g transform="translate(503.125,572.125) scale(3.9483333333333)"><rect width="6" height="6"/></g>
<g transform="translate(526.125,572.125) scale(3.9483333333333)"><path d="M0,6V0h4c1.1,0,2,0.9,2,2v4H0z"/></g>
<g transform="translate(572.125,572.125) scale(3.9483333333333)"><path d="M6,0v6H2C0.9,6,0,5.1,0,4V0H6z"/></g>
<g transform="translate(595.125,572.125) scale(3.9483333333333)"><rect width="6" height="6"/></g>
<g transform="translate(618.125,572.125) scale(3.9483333333333)"><path d="M0,0h6v4c0,1.1-0.9,2-2,2H0V0z"/></g>
<g transform="translate(733.125,572.125) scale(3.9483333333333)"><path d="M0,5.2L0,5.2C0,3.8,4.6,0,6,0l0,0v6H0.8C0.4,6,0,5.6,0,5.2z"/></g>
<g transform="translate(756.125,572.125) scale(3.9483333333333)"><rect width="6" height="6"/></g>
<g transform="translate(779.125,572.125) scale(3.9483333333333)"><rect width="6" height="6"/></g>
<g transform="translate(802.125,572.125) scale(3.9483333333333)"><path d="M0,6V0h4c1.1,0,2,0.9,2,2v4H0z"/></g>
<g transform="translate(848.125,572.125) scale(3.9483333333333)"><path d="M0.8,0L0.8,0C2.2,0,6,4.6,6,6l0,0H0V0.8C0,0.4,0.4,0,0.8,0z"/></g>
<g transform="translate(158.125,595.125) scale(3.9483333333333)"><path d="M5.4,2.8C4.5,1.1,2.6-0.1,1.2,0c-1.3,0.1-1.6,1.6-0.7,3.2c1,1.7,2.8,2.9,4.2,2.8C6.1,5.9,6.4,4.4,5.4,2.8z"/></g>
<g transform="translate(204.125,595.125) scale(3.9483333333333)"><path d="M6,6H0V2c0-1.1,0.9-2,2-2h4V6z"/></g>
<g transform="translate(227.125,595.125) scale(3.9483333333333)"><rect width="6" height="6"/></g>
<g transform="translate(250.125,595.125) scale(3.9483333333333)"><rect width="6" height="6"/></g>
<g transform="translate(273.125,595.125) scale(3.9483333333333)"><path d="M0,0h6v4c0,1.1-0.9,2-2,2H0V0z"/></g>
<g transform="translate(319.125,595.125) scale(3.9483333333333)"><path d="M5.2,6L5.2,6C3.8,6,0,1.4,0,0l0,0h6v5.2C6,5.6,5.6,6,5.2,6z"/></g>
<g transform="translate(365.125,595.125) scale(3.9483333333333)"><path d="M5.2,6L5.2,6C3.8,6,0,1.4,0,0l0,0h6v5.2C6,5.6,5.6,6,5.2,6z"/></g>
<g transform="translate(434.125,595.125) scale(3.9483333333333)"><path d="M0.8,0L0.8,0C2.2,0,6,4.6,6,6l0,0H0V0.8C0,0.4,0.4,0,0.8,0z"/></g>
<g transform="translate(503.125,595.125) scale(3.9483333333333)"><rect width="6" height="6"/></g>
<g transform="translate(526.125,595.125) scale(3.9483333333333)"><rect width="6" height="6"/></g>
<g transform="translate(549.125,595.125) scale(3.9483333333333)"><path d="M0,6V0h4c1.1,0,2,0.9,2,2v4H0z"/></g>
<g transform="translate(641.125,595.125) scale(3.9483333333333)"><path d="M0,5.2L0,5.2C0,3.8,4.6,0,6,0l0,0v6H0.8C0.4,6,0,5.6,0,5.2z"/></g>
<g transform="translate(664.125,595.125) scale(3.9483333333333)"><rect width="6" height="6"/></g>
<g transform="translate(687.125,595.125) scale(3.9483333333333)"><rect width="6" height="6"/></g>
<g transform="translate(710.125,595.125) scale(3.9483333333333)"><path d="M6,0.8L6,0.8C6,2.2,1.4,6,0,6l0,0V0h5.2C5.6,0,6,0.4,6,0.8z"/></g>
<g transform="translate(756.125,595.125) scale(3.9483333333333)"><rect width="6" height="6"/></g>
<g transform="translate(802.125,595.125) scale(3.9483333333333)"><rect width="6" height="6"/></g>
<g transform="translate(825.125,595.125) scale(3.9483333333333)"><rect width="6" height="6"/></g>
<g transform="translate(848.125,595.125) scale(3.9483333333333)"><path d="M0,0h6v4c0,1.1-0.9,2-2,2H0V0z"/></g>
<g transform="translate(894.125,595.125) scale(3.9483333333333)"><path d="M5.4,2.8C4.5,1.1,2.6-0.1,1.2,0c-1.3,0.1-1.6,1.6-0.7,3.2c1,1.7,2.8,2.9,4.2,2.8C6.1,5.9,6.4,4.4,5.4,2.8z"/></g>
<g transform="translate(181.125,618.125) scale(3.9483333333333)"><path d="M0,5.2L0,5.2C0,3.8,4.6,0,6,0l0,0v6H0.8C0.4,6,0,5.6,0,5.2z"/></g>
<g transform="translate(204.125,618.125) scale(3.9483333333333)"><rect width="6" height="6"/></g>
<g transform="translate(296.125,618.125) scale(3.9483333333333)"><path d="M5.4,2.8C4.5,1.1,2.6-0.1,1.2,0c-1.3,0.1-1.6,1.6-0.7,3.2c1,1.7,2.8,2.9,4.2,2.8C6.1,5.9,6.4,4.4,5.4,2.8z"/></g>
<g transform="translate(434.125,618.125) scale(3.9483333333333)"><rect width="6" height="6"/></g>
<g transform="translate(457.125,618.125) scale(3.9483333333333)"><path d="M0,6V0h4c1.1,0,2,0.9,2,2v4H0z"/></g>
<g transform="translate(503.125,618.125) scale(3.9483333333333)"><rect width="6" height="6"/></g>
<g transform="translate(549.125,618.125) scale(3.9483333333333)"><path d="M6,0v6H2C0.9,6,0,5.1,0,4V0H6z"/></g>
<g transform="translate(572.125,618.125) scale(3.9483333333333)"><rect width="6" height="6"/></g>
<g transform="translate(595.125,618.125) scale(3.9483333333333)"><rect width="6" height="6"/></g>
<g transform="translate(618.125,618.125) scale(3.9483333333333)"><path d="M6,0.8L6,0.8C6,2.2,1.4,6,0,6l0,0V0h5.2C5.6,0,6,0.4,6,0.8z"/></g>
<g transform="translate(664.125,618.125) scale(3.9483333333333)"><path d="M5.2,6L5.2,6C3.8,6,0,1.4,0,0l0,0h6v5.2C6,5.6,5.6,6,5.2,6z"/></g>
<g transform="translate(733.125,618.125) scale(3.9483333333333)"><path d="M0,5.2L0,5.2C0,3.8,4.6,0,6,0l0,0v6H0.8C0.4,6,0,5.6,0,5.2z"/></g>
<g transform="translate(756.125,618.125) scale(3.9483333333333)"><rect width="6" height="6"/></g>
<g transform="translate(779.125,618.125) scale(3.9483333333333)"><rect width="6" height="6"/></g>
<g transform="translate(802.125,618.125) scale(3.9483333333333)"><rect width="6" height="6"/></g>
<g transform="translate(825.125,618.125) scale(3.9483333333333)"><path d="M0,0h6v4c0,1.1-0.9,2-2,2H0V0z"/></g>
<g transform="translate(158.125,641.125) scale(3.9483333333333)"><path d="M0.8,0L0.8,0C2.2,0,6,4.6,6,6l0,0H0V0.8C0,0.4,0.4,0,0.8,0z"/></g>
<g transform="translate(204.125,641.125) scale(3.9483333333333)"><rect width="6" height="6"/></g>
<g transform="translate(250.125,641.125) scale(3.9483333333333)"><path d="M0,5.2L0,5.2C0,3.8,4.6,0,6,0l0,0v6H0.8C0.4,6,0,5.6,0,5.2z"/></g>
<g transform="translate(273.125,641.125) scale(3.9483333333333)"><path d="M6,0.8L6,0.8C6,2.2,1.4,6,0,6l0,0V0h5.2C5.6,0,6,0.4,6,0.8z"/></g>
<g transform="translate(342.125,641.125) scale(3.9483333333333)"><path d="M5.4,2.8C4.5,1.1,2.6-0.1,1.2,0c-1.3,0.1-1.6,1.6-0.7,3.2c1,1.7,2.8,2.9,4.2,2.8C6.1,5.9,6.4,4.4,5.4,2.8z"/></g>
<g transform="translate(434.125,641.125) scale(3.9483333333333)"><rect width="6" height="6"/></g>
<g transform="translate(457.125,641.125) scale(3.9483333333333)"><rect width="6" height="6"/></g>
<g transform="translate(480.125,641.125) scale(3.9483333333333)"><rect width="6" height="6"/></g>
<g transform="translate(503.125,641.125) scale(3.9483333333333)"><rect width="6" height="6"/></g>
<g transform="translate(526.125,641.125) scale(3.9483333333333)"><path d="M6,0.8L6,0.8C6,2.2,1.4,6,0,6l0,0V0h5.2C5.6,0,6,0.4,6,0.8z"/></g>
<g transform="translate(595.125,641.125) scale(3.9483333333333)"><path d="M5.2,6L5.2,6C3.8,6,0,1.4,0,0l0,0h6v5.2C6,5.6,5.6,6,5.2,6z"/></g>
<g transform="translate(641.125,641.125) scale(3.9483333333333)"><path d="M5.4,2.8C4.5,1.1,2.6-0.1,1.2,0c-1.3,0.1-1.6,1.6-0.7,3.2c1,1.7,2.8,2.9,4.2,2.8C6.1,5.9,6.4,4.4,5.4,2.8z"/></g>
<g transform="translate(710.125,641.125) scale(3.9483333333333)"><path d="M5.4,2.8C4.5,1.1,2.6-0.1,1.2,0c-1.3,0.1-1.6,1.6-0.7,3.2c1,1.7,2.8,2.9,4.2,2.8C6.1,5.9,6.4,4.4,5.4,2.8z"/></g>
<g transform="translate(894.125,641.125) scale(3.9483333333333)"><path d="M5.4,2.8C4.5,1.1,2.6-0.1,1.2,0c-1.3,0.1-1.6,1.6-0.7,3.2c1,1.7,2.8,2.9,4.2,2.8C6.1,5.9,6.4,4.4,5.4,2.8z"/></g>
<g transform="translate(158.125,664.125) scale(3.9483333333333)"><rect width="6" height="6"/></g>
<g transform="translate(204.125,664.125) scale(3.9483333333333)"><rect width="6" height="6"/></g>
<g transform="translate(296.125,664.125) scale(3.9483333333333)"><path d="M5.4,2.8C4.5,1.1,2.6-0.1,1.2,0c-1.3,0.1-1.6,1.6-0.7,3.2c1,1.7,2.8,2.9,4.2,2.8C6.1,5.9,6.4,4.4,5.4,2.8z"/></g>
<g transform="translate(388.125,664.125) scale(3.9483333333333)"><path d="M5.4,2.8C4.5,1.1,2.6-0.1,1.2,0c-1.3,0.1-1.6,1.6-0.7,3.2c1,1.7,2.8,2.9,4.2,2.8C6.1,5.9,6.4,4.4,5.4,2.8z"/></g>
<g transform="translate(434.125,664.125) scale(3.9483333333333)"><rect width="6" height="6"/></g>
<g transform="translate(457.125,664.125) scale(3.9483333333333)"><rect width="6" height="6"/></g>
<g transform="translate(480.125,664.125) scale(3.9483333333333)"><rect width="6" height="6"/></g>
<g transform="translate(549.125,664.125) scale(3.9483333333333)"><path d="M0.8,0L0.8,0C2.2,0,6,4.6,6,6l0,0H0V0.8C0,0.4,0.4,0,0.8,0z"/></g>
<g transform="translate(618.125,664.125) scale(3.9483333333333)"><path d="M0.8,0L0.8,0C2.2,0,6,4.6,6,6l0,0H0V0.8C0,0.4,0.4,0,0.8,0z"/></g>
<g transform="translate(779.125,664.125) scale(3.9483333333333)"><path d="M5.4,2.8C4.5,1.1,2.6-0.1,1.2,0c-1.3,0.1-1.6,1.6-0.7,3.2c1,1.7,2.8,2.9,4.2,2.8C6.1,5.9,6.4,4.4,5.4,2.8z"/></g>
<g transform="translate(825.125,664.125) scale(3.9483333333333)"><path d="M6,6H0V2c0-1.1,0.9-2,2-2h4V6z"/></g>
<g transform="translate(848.125,664.125) scale(3.9483333333333)"><rect width="6" height="6"/></g>
<g transform="translate(871.125,664.125) scale(3.9483333333333)"><path d="M0,6V0h4c1.1,0,2,0.9,2,2v4H0z"/></g>
<g transform="translate(158.125,687.125) scale(3.9483333333333)"><rect width="6" height="6"/></g>
<g transform="translate(204.125,687.125) scale(3.9483333333333)"><path d="M6,0v6H2C0.9,6,0,5.1,0,4V0H6z"/></g>
<g transform="translate(227.125,687.125) scale(3.9483333333333)"><path d="M6,0.8L6,0.8C6,2.2,1.4,6,0,6l0,0V0h5.2C5.6,0,6,0.4,6,0.8z"/></g>
<g transform="translate(273.125,687.125) scale(3.9483333333333)"><path d="M5.4,2.8C4.5,1.1,2.6-0.1,1.2,0c-1.3,0.1-1.6,1.6-0.7,3.2c1,1.7,2.8,2.9,4.2,2.8C6.1,5.9,6.4,4.4,5.4,2.8z"/></g>
<g transform="translate(342.125,687.125) scale(3.9483333333333)"><path d="M0,5.2L0,5.2C0,3.8,4.6,0,6,0l0,0v6H0.8C0.4,6,0,5.6,0,5.2z"/></g>
<g transform="translate(365.125,687.125) scale(3.9483333333333)"><path d="M6,0.8L6,0.8C6,2.2,1.4,6,0,6l0,0V0h5.2C5.6,0,6,0.4,6,0.8z"/></g>
<g transform="translate(434.125,687.125) scale(3.9483333333333)"><rect width="6" height="6"/></g>
<g transform="translate(480.125,687.125) scale(3.9483333333333)"><rect width="6" height="6"/></g>
<g transform="translate(503.125,687.125) scale(3.9483333333333)"><path d="M0,6V0h4c1.1,0,2,0.9,2,2v4H0z"/></g>
<g transform="translate(549.125,687.125) scale(3.9483333333333)"><rect width="6" height="6"/></g>
<g transform="translate(595.125,687.125) scale(3.9483333333333)"><path d="M0,5.2L0,5.2C0,3.8,4.6,0,6,0l0,0v6H0.8C0.4,6,0,5.6,0,5.2z"/></g>
<g transform="translate(618.125,687.125) scale(3.9483333333333)"><rect width="6" height="6"/></g>
<g transform="translate(641.125,687.125) scale(3.9483333333333)"><path d="M6,0.8L6,0.8C6,2.2,1.4,6,0,6l0,0V0h5.2C5.6,0,6,0.4,6,0.8z"/></g>
<g transform="translate(710.125,687.125) scale(3.9483333333333)"><path d="M0.8,0L0.8,0C2.2,0,6,4.6,6,6l0,0H0V0.8C0,0.4,0.4,0,0.8,0z"/></g>
<g transform="translate(825.125,687.125) scale(3.9483333333333)"><rect width="6" height="6"/></g>
<g transform="translate(848.125,687.125) scale(3.9483333333333)"><rect width="6" height="6"/></g>
<g transform="translate(871.125,687.125) scale(3.9483333333333)"><rect width="6" height="6"/></g>
<g transform="translate(894.125,687.125) scale(3.9483333333333)"><path d="M0,6V0h4c1.1,0,2,0.9,2,2v4H0z"/></g>
<g transform="translate(158.125,710.125) scale(3.9483333333333)"><path d="M5.2,6L5.2,6C3.8,6,0,1.4,0,0l0,0h6v5.2C6,5.6,5.6,6,5.2,6z"/></g>
<g transform="translate(250.125,710.125) scale(3.9483333333333)"><path d="M5.4,2.8C4.5,1.1,2.6-0.1,1.2,0c-1.3,0.1-1.6,1.6-0.7,3.2c1,1.7,2.8,2.9,4.2,2.8C6.1,5.9,6.4,4.4,5.4,2.8z"/></g>
<g transform="translate(296.125,710.125) scale(3.9483333333333)"><path d="M0,5.2L0,5.2C0,3.8,4.6,0,6,0l0,0v6H0.8C0.4,6,0,5.6,0,5.2z"/></g>
<g transform="translate(319.125,710.125) scale(3.9483333333333)"><path d="M6,0.8L6,0.8C6,2.2,1.4,6,0,6l0,0V0h5.2C5.6,0,6,0.4,6,0.8z"/></g>
<g transform="translate(434.125,710.125) scale(3.9483333333333)"><path d="M6,0v6H2C0.9,6,0,5.1,0,4V0H6z"/></g>
<g transform="translate(457.125,710.125) scale(3.9483333333333)"><rect width="6" height="6"/></g>
<g transform="translate(480.125,710.125) scale(3.9483333333333)"><rect width="6" height="6"/></g>
<g transform="translate(503.125,710.125) scale(3.9483333333333)"><rect width="6" height="6"/></g>
<g transform="translate(526.125,710.125) scale(3.9483333333333)"><rect width="6" height="6"/></g>
<g transform="translate(549.125,710.125) scale(3.9483333333333)"><path d="M0,0h6v4c0,1.1-0.9,2-2,2H0V0z"/></g>
<g transform="translate(710.125,710.125) scale(3.9483333333333)"><rect width="6" height="6"/></g>
<g transform="translate(733.125,710.125) scale(3.9483333333333)"><rect width="6" height="6"/></g>
<g transform="translate(756.125,710.125) scale(3.9483333333333)"><rect width="6" height="6"/></g>
<g transform="translate(779.125,710.125) scale(3.9483333333333)"><rect width="6" height="6"/></g>
<g transform="translate(802.125,710.125) scale(3.9483333333333)"><rect width="6" height="6"/></g>
<g transform="translate(825.125,710.125) scale(3.9483333333333)"><rect width="6" height="6"/></g>
<g transform="translate(871.125,710.125) scale(3.9483333333333)"><path d="M6,0v6H2C0.9,6,0,5.1,0,4V0H6z"/></g>
<g transform="translate(894.125,710.125) scale(3.9483333333333)"><rect width="6" height="6"/></g>
<g transform="translate(342.125,733.125) scale(3.9483333333333)"><path d="M0,5.2L0,5.2C0,3.8,4.6,0,6,0l0,0v6H0.8C0.4,6,0,5.6,0,5.2z"/></g>
<g transform="translate(365.125,733.125) scale(3.9483333333333)"><rect width="6" height="6"/></g>
<g transform="translate(388.125,733.125) scale(3.9483333333333)"><path d="M0,6V0h4c1.1,0,2,0.9,2,2v4H0z"/></g>
<g transform="translate(457.125,733.125) scale(3.9483333333333)"><path d="M5.2,6L5.2,6C3.8,6,0,1.4,0,0l0,0h6v5.2C6,5.6,5.6,6,5.2,6z"/></g>
<g transform="translate(503.125,733.125) scale(3.9483333333333)"><path d="M5.2,6L5.2,6C3.8,6,0,1.4,0,0l0,0h6v5.2C6,5.6,5.6,6,5.2,6z"/></g>
<g transform="translate(618.125,733.125) scale(3.9483333333333)"><path d="M5.4,2.8C4.5,1.1,2.6-0.1,1.2,0c-1.3,0.1-1.6,1.6-0.7,3.2c1,1.7,2.8,2.9,4.2,2.8C6.1,5.9,6.4,4.4,5.4,2.8z"/></g>
<g transform="translate(664.125,733.125) scale(3.9483333333333)"><path d="M0.8,0L0.8,0C2.2,0,6,4.6,6,6l0,0H0V0.8C0,0.4,0.4,0,0.8,0z"/></g>
<g transform="translate(710.125,733.125) scale(3.9483333333333)"><rect width="6" height="6"/></g>
<g transform="translate(802.125,733.125) scale(3.9483333333333)"><rect width="6" height="6"/></g>
<g transform="translate(825.125,733.125) scale(3.9483333333333)"><rect width="6" height="6"/></g>
<g transform="translate(894.125,733.125) scale(3.9483333333333)"><path d="M5.2,6L5.2,6C3.8,6,0,1.4,0,0l0,0h6v5.2C6,5.6,5.6,6,5.2,6z"/></g>
<g transform="translate(388.125,756.125) scale(3.9483333333333)"><rect width="6" height="6"/></g>
<g transform="translate(411.125,756.125) scale(3.9483333333333)"><path d="M6,0.8L6,0.8C6,2.2,1.4,6,0,6l0,0V0h5.2C5.6,0,6,0.4,6,0.8z"/></g>
<g transform="translate(480.125,756.125) scale(3.9483333333333)"><path d="M0.8,0L0.8,0C2.2,0,6,4.6,6,6l0,0H0V0.8C0,0.4,0.4,0,0.8,0z"/></g>
<g transform="translate(526.125,756.125) scale(3.9483333333333)"><path d="M5.4,2.8C4.5,1.1,2.6-0.1,1.2,0c-1.3,0.1-1.6,1.6-0.7,3.2c1,1.7,2.8,2.9,4.2,2.8C6.1,5.9,6.4,4.4,5.4,2.8z"/></g>
<g transform="translate(595.125,756.125) scale(3.9483333333333)"><path d="M5.4,2.8C4.5,1.1,2.6-0.1,1.2,0c-1.3,0.1-1.6,1.6-0.7,3.2c1,1.7,2.8,2.9,4.2,2.8C6.1,5.9,6.4,4.4,5.4,2.8z"/></g>
<g transform="translate(664.125,756.125) scale(3.9483333333333)"><path d="M6,0v6H2C0.9,6,0,5.1,0,4V0H6z"/></g>
<g transform="translate(687.125,756.125) scale(3.9483333333333)"><rect width="6" height="6"/></g>
<g transform="translate(710.125,756.125) scale(3.9483333333333)"><rect width="6" height="6"/></g>
<g transform="translate(756.125,756.125) scale(3.9483333333333)"><path d="M5.4,2.8C4.5,1.1,2.6-0.1,1.2,0c-1.3,0.1-1.6,1.6-0.7,3.2c1,1.7,2.8,2.9,4.2,2.8C6.1,5.9,6.4,4.4,5.4,2.8z"/></g>
<g transform="translate(802.125,756.125) scale(3.9483333333333)"><rect width="6" height="6"/></g>
<g transform="translate(825.125,756.125) scale(3.9483333333333)"><rect width="6" height="6"/></g>
<g transform="translate(871.125,756.125) scale(3.9483333333333)"><path d="M0.8,0L0.8,0C2.2,0,6,4.6,6,6l0,0H0V0.8C0,0.4,0.4,0,0.8,0z"/></g>
<g transform="translate(388.125,779.125) scale(3.9483333333333)"><rect width="6" height="6"/></g>
<g transform="translate(434.125,779.125) scale(3.9483333333333)"><path d="M5.4,2.8C4.5,1.1,2.6-0.1,1.2,0c-1.3,0.1-1.6,1.6-0.7,3.2c1,1.7,2.8,2.9,4.2,2.8C6.1,5.9,6.4,4.4,5.4,2.8z"/></g>
<g transform="translate(480.125,779.125) scale(3.9483333333333)"><path d="M5.2,6L5.2,6C3.8,6,0,1.4,0,0l0,0h6v5.2C6,5.6,5.6,6,5.2,6z"/></g>
<g transform="translate(618.125,779.125) scale(3.9483333333333)"><path d="M5.4,2.8C4.5,1.1,2.6-0.1,1.2,0c-1.3,0.1-1.6,1.6-0.7,3.2c1,1.7,2.8,2.9,4.2,2.8C6.1,5.9,6.4,4.4,5.4,2.8z"/></g>
<g transform="translate(687.125,779.125) scale(3.9483333333333)"><path d="M6,0v6H2C0.9,6,0,5.1,0,4V0H6z"/></g>
<g transform="translate(710.125,779.125) scale(3.9483333333333)"><rect width="6" height="6"/></g>
<g transform="translate(802.125,779.125) scale(3.9483333333333)"><rect width="6" height="6"/></g>
<g transform="translate(825.125,779.125) scale(3.9483333333333)"><rect width="6" height="6"/></g>
<g transform="translate(848.125,779.125) scale(3.9483333333333)"><rect width="6" height="6"/></g>
<g transform="translate(871.125,779.125) scale(3.9483333333333)"><rect width="6" height="6"/></g>
<g transform="translate(894.125,779.125) scale(3.9483333333333)"><path d="M0,6V0h4c1.1,0,2,0.9,2,2v4H0z"/></g>
<g transform="translate(342.125,802.125) scale(3.9483333333333)"><path d="M6,6H0V2c0-1.1,0.9-2,2-2h4V6z"/></g>
<g transform="translate(365.125,802.125) scale(3.9483333333333)"><rect width="6" height="6"/></g>
<g transform="translate(388.125,802.125) scale(3.9483333333333)"><rect width="6" height="6"/></g>
<g transform="translate(411.125,802.125) scale(3.9483333333333)"><path d="M0,6V0h4c1.1,0,2,0.9,2,2v4H0z"/></g>
<g transform="translate(526.125,802.125) scale(3.9483333333333)"><path d="M0.8,0L0.8,0C2.2,0,6,4.6,6,6l0,0H0V0.8C0,0.4,0.4,0,0.8,0z"/></g>
<g transform="translate(572.125,802.125) scale(3.9483333333333)"><path d="M0.8,0L0.8,0C2.2,0,6,4.6,6,6l0,0H0V0.8C0,0.4,0.4,0,0.8,0z"/></g>
<g transform="translate(641.125,802.125) scale(3.9483333333333)"><path d="M0,5.2L0,5.2C0,3.8,4.6,0,6,0l0,0v6H0.8C0.4,6,0,5.6,0,5.2z"/></g>
<g transform="translate(664.125,802.125) scale(3.9483333333333)"><path d="M6,0.8L6,0.8C6,2.2,1.4,6,0,6l0,0V0h5.2C5.6,0,6,0.4,6,0.8z"/></g>
<g transform="translate(710.125,802.125) scale(3.9483333333333)"><path d="M6,0v6H2C0.9,6,0,5.1,0,4V0H6z"/></g>
<g transform="translate(733.125,802.125) scale(3.9483333333333)"><rect width="6" height="6"/></g>
<g transform="translate(756.125,802.125) scale(3.9483333333333)"><rect width="6" height="6"/></g>
<g transform="translate(779.125,802.125) scale(3.9483333333333)"><rect width="6" height="6"/></g>
<g transform="translate(802.125,802.125) scale(3.9483333333333)"><rect width="6" height="6"/></g>
<g transform="translate(871.125,802.125) scale(3.9483333333333)"><rect width="6" height="6"/></g>
<g transform="translate(894.125,802.125) scale(3.9483333333333)"><path d="M0,0h6v4c0,1.1-0.9,2-2,2H0V0z"/></g>
<g transform="translate(342.125,825.125) scale(3.9483333333333)"><rect width="6" height="6"/></g>
<g transform="translate(388.125,825.125) scale(3.9483333333333)"><path d="M6,0v6H2C0.9,6,0,5.1,0,4V0H6z"/></g>
<g transform="translate(411.125,825.125) scale(3.9483333333333)"><rect width="6" height="6"/></g>
<g transform="translate(434.125,825.125) scale(3.9483333333333)"><path d="M6,0.8L6,0.8C6,2.2,1.4,6,0,6l0,0V0h5.2C5.6,0,6,0.4,6,0.8z"/></g>
<g transform="translate(503.125,825.125) scale(3.9483333333333)"><path d="M6,6H0V2c0-1.1,0.9-2,2-2h4V6z"/></g>
<g transform="translate(526.125,825.125) scale(3.9483333333333)"><rect width="6" height="6"/></g>
<g transform="translate(572.125,825.125) scale(3.9483333333333)"><path d="M6,0v6H2C0.9,6,0,5.1,0,4V0H6z"/></g>
<g transform="translate(595.125,825.125) scale(3.9483333333333)"><path d="M6,0.8L6,0.8C6,2.2,1.4,6,0,6l0,0V0h5.2C5.6,0,6,0.4,6,0.8z"/></g>
<g transform="translate(687.125,825.125) scale(3.9483333333333)"><path d="M5.4,2.8C4.5,1.1,2.6-0.1,1.2,0c-1.3,0.1-1.6,1.6-0.7,3.2c1,1.7,2.8,2.9,4.2,2.8C6.1,5.9,6.4,4.4,5.4,2.8z"/></g>
<g transform="translate(733.125,825.125) scale(3.9483333333333)"><rect width="6" height="6"/></g>
<g transform="translate(802.125,825.125) scale(3.9483333333333)"><path d="M6,0v6H2C0.9,6,0,5.1,0,4V0H6z"/></g>
<g transform="translate(825.125,825.125) scale(3.9483333333333)"><path d="M6,0.8L6,0.8C6,2.2,1.4,6,0,6l0,0V0h5.2C5.6,0,6,0.4,6,0.8z"/></g>
<g transform="translate(871.125,825.125) scale(3.9483333333333)"><path d="M5.2,6L5.2,6C3.8,6,0,1.4,0,0l0,0h6v5.2C6,5.6,5.6,6,5.2,6z"/></g>
<g transform="translate(342.125,848.125) scale(3.9483333333333)"><path d="M5.2,6L5.2,6C3.8,6,0,1.4,0,0l0,0h6v5.2C6,5.6,5.6,6,5.2,6z"/></g>
<g transform="translate(457.125,848.125) scale(3.9483333333333)"><path d="M5.4,2.8C4.5,1.1,2.6-0.1,1.2,0c-1.3,0.1-1.6,1.6-0.7,3.2c1,1.7,2.8,2.9,4.2,2.8C6.1,5.9,6.4,4.4,5.4,2.8z"/></g>
<g transform="translate(503.125,848.125) scale(3.9483333333333)"><rect width="6" height="6"/></g>
<g transform="translate(526.125,848.125) scale(3.9483333333333)"><path d="M0,0h6v4c0,1.1-0.9,2-2,2H0V0z"/></g>
<g transform="translate(618.125,848.125) scale(3.9483333333333)"><path d="M0.8,0L0.8,0C2.2,0,6,4.6,6,6l0,0H0V0.8C0,0.4,0.4,0,0.8,0z"/></g>
<g transform="translate(664.125,848.125) scale(3.9483333333333)"><path d="M0.8,0L0.8,0C2.2,0,6,4.6,6,6l0,0H0V0.8C0,0.4,0.4,0,0.8,0z"/></g>
<g transform="translate(710.125,848.125) scale(3.9483333333333)"><path d="M0,5.2L0,5.2C0,3.8,4.6,0,6,0l0,0v6H0.8C0.4,6,0,5.6,0,5.2z"/></g>
<g transform="translate(733.125,848.125) scale(3.9483333333333)"><rect width="6" height="6"/></g>
<g transform="translate(756.125,848.125) scale(3.9483333333333)"><path d="M6,0.8L6,0.8C6,2.2,1.4,6,0,6l0,0V0h5.2C5.6,0,6,0.4,6,0.8z"/></g>
<g transform="translate(503.125,871.125) scale(3.9483333333333)"><rect width="6" height="6"/></g>
<g transform="translate(549.125,871.125) scale(3.9483333333333)"><path d="M0,5.2L0,5.2C0,3.8,4.6,0,6,0l0,0v6H0.8C0.4,6,0,5.6,0,5.2z"/></g>
<g transform="translate(572.125,871.125) scale(3.9483333333333)"><rect width="6" height="6"/></g>
<g transform="translate(595.125,871.125) scale(3.9483333333333)"><rect width="6" height="6"/></g>
<g transform="translate(618.125,871.125) scale(3.9483333333333)"><rect width="6" height="6"/></g>
<g transform="translate(641.125,871.125) scale(3.9483333333333)"><rect width="6" height="6"/></g>
<g transform="translate(664.125,871.125) scale(3.9483333333333)"><rect width="6" height="6"/></g>
<g transform="translate(733.125,871.125) scale(3.9483333333333)"><rect width="6" height="6"/></g>
<g transform="translate(779.125,871.125) scale(3.9483333333333)"><path d="M5.4,2.8C4.5,1.1,2.6-0.1,1.2,0c-1.3,0.1-1.6,1.6-0.7,3.2c1,1.7,2.8,2.9,4.2,2.8C6.1,5.9,6.4,4.4,5.4,2.8z"/></g>
<g transform="translate(825.125,871.125) scale(3.9483333333333)"><path d="M5.4,2.8C4.5,1.1,2.6-0.1,1.2,0c-1.3,0.1-1.6,1.6-0.7,3.2c1,1.7,2.8,2.9,4.2,2.8C6.1,5.9,6.4,4.4,5.4,2.8z"/></g>
<g transform="translate(365.125,894.125) scale(3.9483333333333)"><path d="M5.4,2.8C4.5,1.1,2.6-0.1,1.2,0c-1.3,0.1-1.6,1.6-0.7,3.2c1,1.7,2.8,2.9,4.2,2.8C6.1,5.9,6.4,4.4,5.4,2.8z"/></g>
<g transform="translate(411.125,894.125) scale(3.9483333333333)"><path d="M0,5.2L0,5.2C0,3.8,4.6,0,6,0l0,0v6H0.8C0.4,6,0,5.6,0,5.2z"/></g>
<g transform="translate(434.125,894.125) scale(3.9483333333333)"><path d="M6,0.8L6,0.8C6,2.2,1.4,6,0,6l0,0V0h5.2C5.6,0,6,0.4,6,0.8z"/></g>
<g transform="translate(480.125,894.125) scale(3.9483333333333)"><path d="M0,5.2L0,5.2C0,3.8,4.6,0,6,0l0,0v6H0.8C0.4,6,0,5.6,0,5.2z"/></g>
<g transform="translate(503.125,894.125) scale(3.9483333333333)"><rect width="6" height="6"/></g>
<g transform="translate(526.125,894.125) scale(3.9483333333333)"><path d="M6,0.8L6,0.8C6,2.2,1.4,6,0,6l0,0V0h5.2C5.6,0,6,0.4,6,0.8z"/></g>
<g transform="translate(618.125,894.125) scale(3.9483333333333)"><path d="M5.2,6L5.2,6C3.8,6,0,1.4,0,0l0,0h6v5.2C6,5.6,5.6,6,5.2,6z"/></g>
<g transform="translate(664.125,894.125) scale(3.9483333333333)"><path d="M6,0v6H2C0.9,6,0,5.1,0,4V0H6z"/></g>
<g transform="translate(687.125,894.125) scale(3.9483333333333)"><rect width="6" height="6"/></g>
<g transform="translate(710.125,894.125) scale(3.9483333333333)"><rect width="6" height="6"/></g>
<g transform="translate(733.125,894.125) scale(3.9483333333333)"><path d="M0,0h6v4c0,1.1-0.9,2-2,2H0V0z"/></g>
<g transform="translate(848.125,894.125) scale(3.9483333333333)"><path d="M0,5.2L0,5.2C0,3.8,4.6,0,6,0l0,0v6H0.8C0.4,6,0,5.6,0,5.2z"/></g>
<g transform="translate(871.125,894.125) scale(3.9483333333333)"><path d="M6,0.8L6,0.8C6,2.2,1.4,6,0,6l0,0V0h5.2C5.6,0,6,0.4,6,0.8z"/></g>
</g></g></mask></defs>
<rect width="905.00208333333" height="905.00208333333" fill="#ffffff" x="89.604166666667" y="89.604166666667" transform="translate(0,133.40625)" />
<g fill="#000000" transform="scale(44.802083333333)"><path d="M0,6h1.7v19.3h20.7V6H24l-1-2l1-2h-1V0H1v2H0l1,2L0,6z M22,25H2V6V5h20v1V25z"/></g>
<rect x="0" y="0" width="1075.25" height="1208.65625" mask="url(#qrmask)" fill="#000000" />
<g transform="translate(0,133.40625)"><g transform="translate(158.125,158.125)"  fill="#ff2600"><g transform="scale(11.5)"><path d="M0,0l0,7c0,3.9,3.1,7,7,7h0c3.9,0,7-3.1,7-7v0c0-3.9-3.1-7-7-7H0z M7,12L7,12c-2.8,0-5-2.2-5-5V2h5c2.8,0,5,2.2,5,5v0 C12,9.8,9.8,12,7,12z"/></g></g>
<g transform="translate(204.125,204.125)"  fill="#000000"><g transform="scale(11.5)"><path d="M3.2,0.3l0.6,1.3C4,1.8,4.1,1.9,4.3,1.9l1.4,0.2c0.2,0,0.3,0.3,0.2,0.5l-1,1C4.7,3.7,4.7,3.9,4.7,4.1L5,5.5 c0,0.2-0.2,0.4-0.4,0.3L3.3,5.2c-0.2-0.1-0.4-0.1-0.6,0L1.4,5.8C1.2,5.9,1,5.8,1,5.5l0.2-1.4c0-0.2,0-0.4-0.2-0.5l-1-1 C-0.1,2.4,0,2.2,0.2,2.1l1.4-0.2c0.2,0,0.4-0.2,0.5-0.3l0.6-1.3C2.9,0.1,3.1,0.1,3.2,0.3z"/></g></g>
<g transform="translate(756.125,158.125)"  fill="#ff2600"><g transform="scale(11.5) rotate(90 7 7)"><path d="M0,0l0,7c0,3.9,3.1,7,7,7h0c3.9,0,7-3.1,7-7v0c0-3.9-3.1-7-7-7H0z M7,12L7,12c-2.8,0-5-2.2-5-5V2h5c2.8,0,5,2.2,5,5v0 C12,9.8,9.8,12,7,12z"/></g></g>
<g transform="translate(802.125,204.125)"  fill="#000000"><g transform="scale(11.5)"><path d="M3.2,0.3l0.6,1.3C4,1.8,4.1,1.9,4.3,1.9l1.4,0.2c0.2,0,0.3,0.3,0.2,0.5l-1,1C4.7,3.7,4.7,3.9,4.7,4.1L5,5.5 c0,0.2-0.2,0.4-0.4,0.3L3.3,5.2c-0.2-0.1-0.4-0.1-0.6,0L1.4,5.8C1.2,5.9,1,5.8,1,5.5l0.2-1.4c0-0.2,0-0.4-0.2-0.5l-1-1 C-0.1,2.4,0,2.2,0.2,2.1l1.4-0.2c0.2,0,0.4-0.2,0.5-0.3l0.6-1.3C2.9,0.1,3.1,0.1,3.2,0.3z"/></g></g>
<g transform="translate(158.125,756.125)"  fill="#ff2600"><g transform="scale(11.5) rotate(-90 7 7)"><path d="M0,0l0,7c0,3.9,3.1,7,7,7h0c3.9,0,7-3.1,7-7v0c0-3.9-3.1-7-7-7H0z M7,12L7,12c-2.8,0-5-2.2-5-5V2h5c2.8,0,5,2.2,5,5v0 C12,9.8,9.8,12,7,12z"/></g></g>
<g transform="translate(204.125,802.125)"  fill="#000000"><g transform="scale(11.5)"><path d="M3.2,0.3l0.6,1.3C4,1.8,4.1,1.9,4.3,1.9l1.4,0.2c0.2,0,0.3,0.3,0.2,0.5l-1,1C4.7,3.7,4.7,3.9,4.7,4.1L5,5.5 c0,0.2-0.2,0.4-0.4,0.3L3.3,5.2c-0.2-0.1-0.4-0.1-0.6,0L1.4,5.8C1.2,5.9,1,5.8,1,5.5l0.2-1.4c0-0.2,0-0.4-0.2-0.5l-1-1 C-0.1,2.4,0,2.2,0.2,2.1l1.4-0.2c0.2,0,0.4-0.2,0.5-0.3l0.6-1.3C2.9,0.1,3.1,0.1,3.2,0.3z"/></g></g></g>
<text fill="#FFFFFF" font-family="Arial, Helvetica, sans-serif" font-size="134.40625px" text-anchor="middle" x="525.625" y="163.69991987179">NACHO</text></svg>